<svg width="146" height="41" viewBox="0 0 146 41" fill="none" xmlns="http://www.w3.org/2000/svg">
<mask id="mask0_372_32201" style="mask-type:luminance" maskUnits="userSpaceOnUse" x="0" y="1" width="146" height="39">
<path d="M145.673 1.44214H0.539062V39.558H145.673V1.44214Z" fill="white"/>
</mask>
<g mask="url(#mask0_372_32201)">
<path d="M56.3614 25.7931C53.7943 25.7931 51.9403 23.7313 51.9403 20.9333C51.9403 18.1352 53.7943 16.0735 56.3614 16.0735C58.5007 16.0735 60.155 17.4872 60.64 19.6078H63.6919C63.1214 15.8673 60.2121 13.2754 56.3614 13.2754C52.0829 13.2754 48.9453 16.5153 48.9453 20.9333C48.9453 25.3513 52.0829 28.591 56.3614 28.591C60.2121 28.591 63.1214 25.9992 63.6919 22.2586H60.64C60.155 24.3498 58.5007 25.7931 56.3614 25.7931Z" fill="#31373D"/>
<path d="M67.7148 28.2965L68.8843 25.3511H76.4145L77.5839 28.2965H80.6645L74.8171 13.5698H70.5387L64.6914 28.2965H67.7148ZM69.9397 22.7004L72.5068 16.2207H72.792L75.3591 22.7004H69.9397Z" fill="#31373D"/>
<path d="M89.3575 25.7929C87.0472 25.7929 85.3642 23.8785 85.3642 21.2277V13.5698H82.5117V21.2277C82.5117 25.4689 85.4214 28.5909 89.3575 28.5909C93.2938 28.5909 96.2032 25.4689 96.2032 21.2277V13.5698H93.3508V21.2277C93.3508 23.8785 91.6679 25.7929 89.3575 25.7929Z" fill="#31373D"/>
<path d="M106.328 25.9403C103.932 25.9403 102.335 25.1155 102.335 23.8786H99.4824C99.4824 26.706 102.221 28.591 106.328 28.591C110.778 28.591 113.174 26.9122 113.174 23.7902C113.174 20.7859 111.177 19.4606 106.471 19.4606C103.761 19.4606 102.62 19.0188 102.62 17.8996C102.62 16.6037 103.904 15.9261 106.328 15.9261C108.553 15.9261 110.036 16.7509 110.036 17.9879H112.888C112.888 15.1604 110.264 13.2754 106.328 13.2754C102.05 13.2754 99.7677 14.8954 99.7677 17.8996C99.7677 20.8743 101.707 22.1114 106.214 22.1114C109.066 22.1114 110.321 22.612 110.321 23.7902C110.321 25.1745 108.924 25.9403 106.328 25.9403Z" fill="#31373D"/>
<path d="M118.054 28.2965L119.225 25.3511H126.754L127.923 28.2965H131.005L125.156 13.5698H120.879L115.031 28.2965H118.054ZM120.28 22.7004L122.847 16.2207H123.132L125.699 22.7004H120.28Z" fill="#31373D"/>
<path d="M133.717 28.2965H145.127V25.6457H136.57V13.5698H133.717V28.2965Z" fill="#31373D"/>
<path opacity="0.8" fill-rule="evenodd" clip-rule="evenodd" d="M18.9954 39.5581C29.1886 39.5581 37.4517 31.0256 37.4517 20.5001C37.4517 9.97467 29.1886 1.44214 18.9954 1.44214C8.80223 1.44214 0.539062 9.97467 0.539062 20.5001C0.539062 31.0256 8.80223 39.5581 18.9954 39.5581ZM18.9954 32.4336C25.3779 32.4336 30.5521 27.0908 30.5521 20.5001C30.5521 13.9094 25.3779 8.56662 18.9954 8.56662C12.6128 8.56662 7.43861 13.9094 7.43861 20.5001C7.43861 27.0908 12.6128 32.4336 18.9954 32.4336Z" fill="#555E67"/>
</g>
</svg>
