<svg width="112" height="31" viewBox="0 0 112 31" fill="none" xmlns="http://www.w3.org/2000/svg">
<mask id="mask0_367_28463" style="mask-type:luminance" maskUnits="userSpaceOnUse" x="0" y="0" width="112" height="31">
<path d="M111.458 0.689453H0.208862V30.3105H111.458V0.689453Z" fill="white"/>
</mask>
<g mask="url(#mask0_367_28463)">
<path opacity="0.5" fill-rule="evenodd" clip-rule="evenodd" d="M81.3202 6.5947C80.8719 7.039 80.4693 7.5269 80.119 8.051C79.2512 6.7542 78.073 5.6904 76.6896 4.9545C75.3061 4.2186 73.7605 3.83341 72.1904 3.83334H52.4229V6.2302C50.6801 4.6861 48.4243 3.83249 46.0867 3.83252H35.831C34.2611 3.83249 32.7156 4.2175 31.3323 4.9533C29.949 5.6891 28.7709 6.7528 27.9033 8.0494C27.0358 6.7525 25.8577 5.6887 24.4745 4.9529C23.0911 4.2171 21.5454 3.8322 19.9755 3.83252H0.208862V30.3104H19.978C21.5482 30.3105 23.0939 29.9254 24.4772 29.1892C25.8606 28.4531 27.0385 27.389 27.9057 26.0919C28.7731 27.389 29.951 28.4531 31.3343 29.1892C32.7177 29.9254 34.2634 30.3105 35.8335 30.3104H46.0884C48.4262 30.3104 50.6811 29.4571 52.4237 27.9136V30.3104H68.6503V25.2312H72.1928C73.5291 25.2314 74.8504 24.9526 76.0706 24.4129C77.2908 23.8732 78.3825 23.0847 79.2747 22.0988H85.063V30.3104H101.289V22.0988H107.814V3.83252H88.0459C86.7967 3.83261 85.5598 4.0766 84.4058 4.5505C83.2519 5.0245 82.2033 5.7191 81.3202 6.5947Z" fill="#555E67"/>
<path d="M23.1488 2.26099H4.96619V25.5957H23.1488C25.2514 25.5956 27.2679 24.7681 28.7552 23.2952C30.2415 21.8212 31.0764 19.8226 31.0765 17.7388V10.1196C31.0766 9.0877 30.8717 8.066 30.4733 7.1126C30.0749 6.1593 29.491 5.293 28.7548 4.5634C28.0186 3.83368 27.1446 3.25486 26.1827 2.85996C25.2208 2.46506 24.1899 2.26099 23.1488 2.26099Z" fill="#F7F7F7"/>
<path fill-rule="evenodd" clip-rule="evenodd" d="M3.38171 0.689453H23.1509C25.6738 0.689453 28.0933 1.68273 29.8773 3.45076C31.6612 5.2188 32.6635 7.6168 32.6635 10.1172V17.738C32.6635 20.2384 31.6612 22.6363 29.8773 24.4044C28.0933 26.1724 25.6738 27.1657 23.1509 27.1657H3.38255L3.38171 0.689453ZM6.55315 3.83257V24.0234H23.1509C23.9838 24.0234 24.8086 23.8608 25.578 23.5449C26.3475 23.2289 27.0467 22.7659 27.6356 22.1821C28.2246 21.5984 28.6917 20.9054 29.0104 20.1427C29.329 19.38 29.493 18.5626 29.4929 17.7371V10.118C29.4923 8.8751 29.1202 7.6603 28.4234 6.6268C27.7268 5.5934 26.7368 4.7877 25.5784 4.3114C24.8088 3.99561 23.9839 3.83317 23.1509 3.83339L6.55315 3.83257Z" fill="#31373D"/>
<path fill-rule="evenodd" clip-rule="evenodd" d="M19.6106 19.808V9.44067H22.7821V19.808H19.6106Z" fill="#31373D"/>
<path d="M75.3666 2.26099H57.1824V25.5957H70.2383V20.5166H75.3666C77.4685 20.5159 79.4842 19.6881 80.9705 18.2151C82.4567 16.7421 83.292 14.7444 83.2927 12.6612V10.1188C83.2928 9.0871 83.0879 8.0655 82.6896 7.1123C82.2914 6.1591 81.7075 5.293 80.9716 4.5634C80.2355 3.83382 79.3617 3.25505 78.4 2.86014C77.4383 2.46523 76.4076 2.2611 75.3666 2.26099Z" fill="#F7F7F7"/>
<path fill-rule="evenodd" clip-rule="evenodd" d="M55.598 0.689453H75.3671C77.8901 0.689453 80.3096 1.68273 82.0936 3.45076C83.8775 5.2188 84.8798 7.6168 84.8798 10.1172V12.6596C84.8794 15.1599 83.8769 17.5576 82.0931 19.3255C80.3093 21.0935 77.8899 22.0869 75.3671 22.0873H71.8238V27.1657H55.598V0.689453ZM58.7694 3.83257V24.0234H68.6523V18.945H75.3671C77.0488 18.9445 78.6615 18.2825 79.8512 17.1044C81.0399 15.9255 81.7078 14.3271 81.7083 12.6604V10.118C81.708 8.4514 81.0404 6.8531 79.852 5.674C78.6622 4.4957 77.0491 3.83366 75.3671 3.83339L58.7686 3.83175L58.7694 3.83257Z" fill="#31373D"/>
<path fill-rule="evenodd" clip-rule="evenodd" d="M71.8367 15.7846V9.4375H75.0081V15.7846H71.8367Z" fill="#31373D"/>
<path d="M49.2628 2.26099H39.0072C37.4392 2.2603 35.9062 2.72076 34.6023 3.58406C33.2986 4.4474 32.2825 5.6747 31.683 7.1106C31.2847 8.0638 31.0799 9.0854 31.0802 10.1171V17.7379C31.0805 19.8215 31.9157 21.8197 33.4021 23.2931C34.8887 24.7665 36.9048 25.5945 39.0072 25.5949H49.2628C51.3654 25.5947 53.3819 24.7673 54.8693 23.2943C56.3559 21.8205 57.1911 19.8219 57.1914 17.7379V10.1188C57.1914 8.0348 56.3561 6.0361 54.8692 4.5625C53.3823 3.08886 51.3656 2.26099 49.2628 2.26099Z" fill="#F7F7F7"/>
<path fill-rule="evenodd" clip-rule="evenodd" d="M32.2774 3.45079C34.0615 1.68275 36.481 0.689473 39.0039 0.689453H49.2621C50.5112 0.689453 51.7483 0.933314 52.9024 1.40709C54.0565 1.88088 55.1052 2.57532 55.9885 3.45076C56.8718 4.3262 57.5726 5.3655 58.0505 6.5093C58.5286 7.6531 58.7747 8.8791 58.7747 10.1172V17.738C58.7747 20.2384 57.7725 22.6363 55.9885 24.4044C54.2045 26.1724 51.785 27.1657 49.2621 27.1657H39.0064C36.4835 27.1657 34.0639 26.1724 32.28 24.4044C30.4959 22.6363 29.4938 20.2384 29.4938 17.738V10.1188C29.4932 8.8806 29.7388 7.6545 30.2164 6.5104C30.694 5.3663 31.3943 4.3266 32.2774 3.45079ZM39.0039 3.83175C37.3219 3.83202 35.7088 4.494 34.519 5.6724C33.3301 6.8515 32.6622 8.4502 32.6619 10.1172V17.738C32.6621 19.405 33.3304 21.0038 34.52 22.1825C35.7095 23.3612 37.3227 24.0234 39.0047 24.0234H49.2621C50.5164 24.0231 51.7425 23.6543 52.7855 22.9637C53.8285 22.273 54.6414 21.2915 55.1217 20.143C55.4402 19.3805 55.6042 18.5633 55.6041 17.738V10.1188C55.6037 8.8758 55.2316 7.6608 54.535 6.6272C53.8382 5.5936 52.8481 4.7877 51.6897 4.3114C50.92 3.99561 50.0951 3.83317 49.2621 3.83339L39.0039 3.83175Z" fill="#31373D"/>
<path fill-rule="evenodd" clip-rule="evenodd" d="M42.5424 9.44067V19.808H39.371V9.44067H42.5424Z" fill="#31373D"/>
<path d="M109.406 2.26099H91.2203C90.1793 2.26082 89.1485 2.46398 88.1868 2.85887C87.2251 3.25376 86.3513 3.83262 85.6154 4.5624C84.879 5.2916 84.2948 6.1576 83.8963 7.1107C83.4977 8.0638 83.2926 9.0854 83.2925 10.1171V17.3833H89.8163V25.5949H102.873V17.3833H109.396L109.406 2.26099Z" fill="#F7F7F7"/>
<path fill-rule="evenodd" clip-rule="evenodd" d="M84.4966 3.45079C86.2808 1.6827 88.7007 0.689433 91.2239 0.689453H110.992V18.9541H104.469V27.1657H88.2418V18.9541H81.7179V10.118C81.7159 7.6184 82.7153 5.2203 84.4966 3.45079ZM91.2239 3.83175C90.3909 3.83175 89.5662 3.99435 88.7967 4.3103C88.0271 4.6262 87.328 5.0892 86.7391 5.673C86.1502 6.2567 85.683 6.9497 85.3644 7.7124C85.0457 8.4751 84.8818 9.2925 84.8819 10.118V15.8118H91.4057V24.0234H101.291V15.8118H107.815V3.83175H91.2239Z" fill="#31373D"/>
</g>
</svg>
