<svg width="101" height="40" viewBox="0 0 101 40" fill="none" xmlns="http://www.w3.org/2000/svg">
<g clip-path="url(#clip0_410_79150)">
<path d="M82.3358 6.10437H78.2246V10.2156H82.3358V6.10437Z" fill="#1D1F20"/>
<path fill-rule="evenodd" clip-rule="evenodd" d="M66.3321 16.66H62.7218V23.3406C62.7218 23.8974 62.8601 24.3048 63.1385 24.5608C63.4169 24.8187 63.8243 24.9682 64.3588 25.0112C64.8932 25.0317 65.5585 25.0224 66.3508 24.9794V28.7374C63.5459 29.0588 61.5445 28.8009 60.3448 27.9675C59.1675 27.1116 58.5789 25.5699 58.5789 23.3424V16.6618H55.7852V12.6777H58.5789V9.43367L62.7218 8.18164V12.6796H69.1258V9.43554L73.2687 8.1835V12.6815H76.8978V16.6656H73.2687V23.3462C73.2687 23.9031 73.407 24.3104 73.6855 24.5664C73.9639 24.8243 74.3713 24.9738 74.9057 25.0168C75.4402 25.0374 76.1054 25.028 76.8959 24.985V28.743C74.091 29.0644 72.0896 28.8065 70.8899 27.9731C69.7126 27.1172 69.124 25.5755 69.124 23.348V16.6674H66.3303L66.3321 16.66Z" fill="#1D1F20"/>
<path d="M82.3558 12.6738H78.2129V28.7353H82.3558V12.6738Z" fill="#1D1F20"/>
<path fill-rule="evenodd" clip-rule="evenodd" d="M92.1165 12.2568C87.4522 12.2568 83.6699 16.0391 83.6699 20.7052C83.6699 25.3714 87.4522 29.1536 92.1165 29.1536C96.7808 29.1536 100.564 25.3714 100.564 20.7052C100.564 16.0391 96.7826 12.2568 92.1165 12.2568ZM92.1015 25.1714C89.6273 25.1714 87.6204 23.1644 87.6204 20.6903C87.6204 18.2161 89.6273 16.2091 92.1015 16.2091C94.5757 16.2091 96.5808 18.2142 96.5808 20.6903C96.5808 23.1663 94.5757 25.1714 92.1015 25.1714Z" fill="#1D1F20"/>
<path fill-rule="evenodd" clip-rule="evenodd" d="M50.3543 12.6418V13.5331C49.0593 12.7258 47.5307 12.2568 45.8919 12.2568C41.2276 12.2568 37.4453 16.0391 37.4453 20.7052C37.4453 25.3714 41.2276 29.1536 45.8919 29.1536C47.5307 29.1536 49.0593 28.6864 50.3543 27.8773V28.7687H54.4655V12.6418H50.3543ZM45.8769 25.1714C43.4027 25.1714 41.3958 23.1644 41.3958 20.6903C41.3958 18.2161 43.4027 16.2091 45.8769 16.2091C48.3511 16.2091 50.3151 18.175 50.3543 20.6155V20.7631C50.3151 23.2037 48.3268 25.1695 45.8769 25.1695V25.1714Z" fill="#1D1F20"/>
<path d="M30.3163 22.3617L27.8047 18.3421C27.8047 18.3421 27.7954 18.3253 27.7898 18.3178L27.5917 18.002C27.218 17.4022 26.5714 17.0434 25.865 17.0415L21.8193 17.0284L21.5371 17.4807L16.7028 25.2171L16.4355 25.645L18.4612 28.8816C18.835 29.4834 19.4815 29.8421 20.1935 29.8421H25.8632C26.5621 29.8421 27.2236 29.474 27.5936 28.8835L27.7935 28.564C27.7935 28.564 27.801 28.5546 27.8029 28.5509L30.3181 24.5257C30.7311 23.8679 30.7311 23.0176 30.3181 22.3617H30.3163ZM29.5501 24.0454L27.0348 28.0706C27.0236 28.0893 27.0105 28.1042 26.9993 28.1192C26.9115 28.2182 26.7975 28.2313 26.7471 28.2313C26.6891 28.2313 26.5471 28.2145 26.4555 28.0687L23.9403 24.0436C23.9122 23.9987 23.8879 23.952 23.8655 23.9015C23.8431 23.8529 23.8263 23.8044 23.8113 23.7539C23.7553 23.5521 23.7553 23.3353 23.8113 23.1335C23.8394 23.0345 23.8823 22.9354 23.9384 22.8457L26.4499 18.8243C26.4499 18.8243 26.4537 18.8187 26.4555 18.8149C26.5153 18.7252 26.5901 18.6841 26.6555 18.671C26.6817 18.6636 26.7041 18.6617 26.7228 18.658C26.7321 18.658 26.7414 18.658 26.7508 18.658C26.8087 18.658 26.9526 18.6766 27.0423 18.8224L29.5538 22.842C29.7837 23.2082 29.7837 23.6792 29.5538 24.0454H29.5501Z" fill="#1D1F20"/>
<path d="M22.8842 12.6357C23.2953 11.976 23.2953 11.1276 22.8842 10.4717L20.3726 6.45216L20.1633 6.11392C19.7877 5.51407 19.1412 5.15527 18.431 5.15527H12.7614C12.0532 5.15527 11.4066 5.51407 11.0291 6.11579L0.876442 22.3641C0.672754 22.6893 0.5625 23.0649 0.5625 23.4461C0.5625 23.8273 0.670885 24.2029 0.874574 24.5262L3.59728 28.8859C3.97288 29.4876 4.61946 29.8445 5.32769 29.8445H10.9973C11.7093 29.8445 12.3559 29.4858 12.7296 28.884L12.9371 28.5551C12.9371 28.5551 12.9371 28.5551 12.9371 28.5514L12.9408 28.5439L14.9646 25.3073L20.9631 15.7078L22.8804 12.6375L22.8842 12.6357ZM22.2918 11.5537C22.2918 11.7611 22.2339 11.9704 22.1161 12.1554L12.1709 28.073C12.0812 28.2169 11.9373 28.2337 11.8794 28.2337C11.8214 28.2337 11.6794 28.2169 11.5879 28.073L9.07445 24.046C8.84646 23.6816 8.84646 23.2125 9.07445 22.8444L19.0197 6.93054C19.1094 6.78478 19.2533 6.76797 19.3112 6.76797C19.3691 6.76797 19.513 6.78478 19.6046 6.93241L22.1161 10.952C22.2339 11.137 22.2918 11.3462 22.2918 11.5537Z" fill="#1D1F20"/>
</g>
<defs>
<clipPath id="clip0_410_79150">
<rect width="100" height="40" fill="white" transform="translate(0.5625)"/>
</clipPath>
</defs>
</svg>
