<svg width="151" height="34" viewBox="0 0 151 34" fill="none" xmlns="http://www.w3.org/2000/svg">
<mask id="mask0_367_28505" style="mask-type:luminance" maskUnits="userSpaceOnUse" x="0" y="0" width="151" height="34">
<path d="M150.995 0H0.00195312V34H150.995V0Z" fill="white"/>
</mask>
<g mask="url(#mask0_367_28505)">
<path d="M26.3194 17.5405H16.7551C16.6408 17.5405 16.5483 17.6328 16.5483 17.7469V20.4295C16.5483 20.5434 16.6408 20.6359 16.7551 20.6359H25.4625C25.9087 19.678 26.2046 18.636 26.3194 17.5405Z" fill="#31373D"/>
<path d="M24.1661 22.699H16.7551C16.6408 22.699 16.5483 22.7913 16.5483 22.9052V25.7943C16.5483 26.0792 16.7802 26.3115 17.0652 26.2968C19.9278 26.1487 22.4661 24.7784 24.1661 22.699Z" fill="#31373D"/>
<path d="M26.3194 15.4772H16.7551C16.6408 15.4772 16.5483 15.3848 16.5483 15.2708V12.5882C16.5483 12.4743 16.6408 12.3818 16.7551 12.3818H25.4625C25.9087 13.3397 26.2046 14.3817 26.3194 15.4772Z" fill="#31373D"/>
<path d="M24.1661 10.3178C22.4661 8.2383 19.9278 6.86797 17.0652 6.7199C16.7802 6.70515 16.5483 6.93753 16.5483 7.2225V10.1114C16.5483 10.2254 16.6408 10.3178 16.7551 10.3178H24.1661Z" fill="#31373D"/>
<path fill-rule="evenodd" clip-rule="evenodd" d="M16.5492 29.9217C23.9744 29.9217 29.9938 23.9164 29.9938 16.5085C29.9938 9.1006 23.9744 3.09535 16.5492 3.09535C9.12392 3.09535 3.10455 9.1006 3.10455 16.5085C3.10455 23.9164 9.12392 29.9217 16.5492 29.9217ZM16.5492 33.017C25.688 33.017 33.0964 25.6259 33.0964 16.5085C33.0964 7.3911 25.688 0 16.5492 0C7.4104 0 0.00195312 7.3911 0.00195312 16.5085C0.00195312 25.6259 7.4104 33.017 16.5492 33.017Z" fill="#31373D"/>
<path d="M52.414 26.4837C51.0467 26.4837 49.7809 26.2349 48.6169 25.7372C47.4713 25.2394 46.4642 24.5481 45.5957 23.6633C44.7458 22.76 44.0806 21.7092 43.6002 20.511C43.1382 19.2943 42.9072 17.967 42.9072 16.5291C42.9072 15.0913 43.1382 13.7732 43.6002 12.5749C44.0806 11.3583 44.7458 10.3075 45.5957 9.4226C46.4642 8.5193 47.4713 7.8188 48.6169 7.3211C49.7809 6.82333 51.0467 6.57446 52.414 6.57446C53.7815 6.57446 55.0379 6.82333 56.1835 7.3211C57.3475 7.8188 58.3547 8.5193 59.2045 9.4226C60.0731 10.3259 60.7383 11.3859 61.2002 12.6026C61.6806 13.8008 61.9208 15.1096 61.9208 16.5291C61.9208 17.9486 61.6806 19.2667 61.2002 20.4833C60.7383 21.6816 60.0731 22.7323 59.2045 23.6356C58.3547 24.5389 57.3475 25.2394 56.1835 25.7372C55.0379 26.2349 53.7815 26.4837 52.414 26.4837ZM52.414 23.5803C53.3564 23.5803 54.2156 23.4052 54.9916 23.0549C55.7863 22.7047 56.47 22.2161 57.0427 21.5894C57.6155 20.9442 58.059 20.1975 58.3731 19.3496C58.7057 18.4831 58.872 17.543 58.872 16.5291C58.872 15.5152 58.7057 14.5842 58.3731 13.7363C58.059 12.8698 57.6155 12.1233 57.0427 11.4965C56.47 10.8513 55.7863 10.3535 54.9916 10.0033C54.2156 9.653 53.3564 9.4779 52.414 9.4779C51.4717 9.4779 50.6033 9.653 49.8086 10.0033C49.0326 10.3535 48.349 10.8421 47.7576 11.4688C47.1849 12.0957 46.7415 12.8422 46.4272 13.7086C46.1131 14.5566 45.9561 15.4968 45.9561 16.5291C45.9561 17.543 46.1131 18.4831 46.4272 19.3496C46.7415 20.216 47.1849 20.9626 47.7576 21.5894C48.349 22.2161 49.0326 22.7047 49.8086 23.0549C50.6033 23.4052 51.4717 23.5803 52.414 23.5803Z" fill="#31373D"/>
<path d="M64.3293 26.2073V11.6901H67.1842V14.6766L66.6853 15.0084C66.8702 14.3632 67.2304 13.7733 67.7663 13.2387C68.3021 12.6856 68.9396 12.2432 69.6787 11.9114C70.4178 11.5611 71.1754 11.386 71.9515 11.386C73.0601 11.386 73.984 11.6072 74.7231 12.0496C75.4623 12.4737 76.0166 13.128 76.3861 14.013C76.7556 14.8978 76.9404 16.0131 76.9404 17.3588V26.2073H74.0856V17.5524C74.0856 16.7228 73.9748 16.0407 73.753 15.5062C73.5313 14.9531 73.1895 14.5567 72.7275 14.3171C72.2656 14.059 71.6928 13.9485 71.0091 13.9852C70.4547 13.9852 69.9467 14.0774 69.4847 14.2618C69.0227 14.4278 68.6163 14.6674 68.2651 14.9807C67.9326 15.2941 67.6646 15.6628 67.4614 16.0868C67.2765 16.4924 67.1842 16.9348 67.1842 17.4141V26.2073H65.7706C65.5304 26.2073 65.2903 26.2073 65.05 26.2073C64.8098 26.2073 64.5696 26.2073 64.3293 26.2073Z" fill="#31373D"/>
<path d="M86.668 26.2073V6.85107H94.2622C95.6481 6.85107 96.8954 7.0815 98.004 7.5424C99.1312 8.0032 100.092 8.6669 100.887 9.5333C101.681 10.3997 102.291 11.4228 102.716 12.6026C103.141 13.7824 103.353 15.0913 103.353 16.5292C103.353 17.9671 103.141 19.2852 102.716 20.4834C102.291 21.6632 101.681 22.6863 100.887 23.5527C100.111 24.4007 99.1589 25.0552 98.0317 25.516C96.9045 25.9769 95.6481 26.2073 94.2622 26.2073H86.668ZM89.6614 23.6356L89.5782 23.3315H94.1237C95.103 23.3315 95.9715 23.1748 96.7291 22.8615C97.5051 22.5481 98.1518 22.1056 98.6692 21.5341C99.205 20.9443 99.6115 20.2253 99.8887 19.3773C100.166 18.5294 100.304 17.5799 100.304 16.5292C100.304 15.4784 100.166 14.5383 99.8887 13.7087C99.6115 12.8607 99.205 12.1418 98.6692 11.5518C98.1334 10.962 97.4866 10.5103 96.7291 10.1969C95.9715 9.8835 95.103 9.7269 94.1237 9.7269H89.4951L89.6614 9.478V23.6356Z" fill="#31373D"/>
<path d="M113.168 26.4841C111.672 26.4841 110.341 26.1707 109.177 25.544C108.032 24.8988 107.126 24.0231 106.461 22.9171C105.814 21.811 105.491 20.539 105.491 19.1011C105.491 17.9581 105.676 16.9166 106.046 15.9765C106.414 15.0363 106.923 14.2252 107.57 13.5431C108.235 12.8426 109.02 12.308 109.925 11.9393C110.849 11.5521 111.847 11.3586 112.919 11.3586C113.862 11.3586 114.739 11.543 115.551 11.9116C116.366 12.2619 117.067 12.7504 117.658 13.3772C118.268 14.0039 118.73 14.7506 119.044 15.617C119.377 16.4649 119.534 17.3959 119.515 18.4098L119.488 19.6265H107.598L106.96 17.359H117.021L116.605 17.8292V17.1654C116.55 16.5571 116.346 16.0133 115.995 15.534C115.645 15.0548 115.201 14.6768 114.665 14.4003C114.13 14.1238 113.547 13.9855 112.919 13.9855C111.921 13.9855 111.081 14.1791 110.397 14.5662C109.714 14.9349 109.195 15.4879 108.845 16.2253C108.493 16.9442 108.319 17.8383 108.319 18.9076C108.319 19.9214 108.53 20.8063 108.956 21.5621C109.381 22.2995 109.982 22.8709 110.757 23.2765C111.533 23.6821 112.43 23.8849 113.446 23.8849C114.166 23.8849 114.831 23.765 115.44 23.5254C116.07 23.2857 116.744 22.8525 117.465 22.2258L118.905 24.2443C118.461 24.6867 117.917 25.0739 117.27 25.4057C116.642 25.7376 115.967 26.0048 115.247 26.2076C114.546 26.392 113.852 26.4841 113.168 26.4841Z" fill="#31373D"/>
<path d="M128.692 26.4838C127.343 26.4838 126.133 26.1521 125.061 25.4884C124.007 24.8247 123.166 23.9215 122.538 22.7786C121.928 21.6356 121.624 20.3544 121.624 18.9349C121.624 17.5155 121.928 16.2343 122.538 15.0914C123.166 13.9485 124.007 13.0451 125.061 12.3815C126.133 11.7178 127.343 11.386 128.692 11.386C129.985 11.386 131.159 11.6534 132.212 12.1879C133.283 12.7041 134.097 13.4138 134.651 14.3171L133.07 16.2527C132.775 15.8288 132.397 15.4416 131.934 15.0914C131.473 14.7411 130.983 14.4645 130.465 14.2618C129.949 14.059 129.45 13.9576 128.969 13.9576C128.082 13.9576 127.287 14.1788 126.586 14.6212C125.902 15.0452 125.357 15.6352 124.95 16.391C124.544 17.1468 124.34 17.9948 124.34 18.9349C124.34 19.8751 124.552 20.7231 124.977 21.4789C125.402 22.2163 125.966 22.8062 126.668 23.2486C127.37 23.691 128.147 23.9123 128.997 23.9123C129.496 23.9123 129.975 23.8293 130.438 23.6634C130.918 23.4975 131.38 23.2486 131.823 22.9168C132.267 22.585 132.683 22.1794 133.07 21.7001L134.651 23.6358C134.06 24.4653 133.209 25.1473 132.101 25.682C131.011 26.2166 129.874 26.4838 128.692 26.4838Z" fill="#31373D"/>
<path d="M139.329 21.6725L139.191 18.5755L146.147 11.6902H150L139.329 21.6725ZM136.723 26.2073V6.80981H139.579V26.2073H136.723ZM146.535 26.2073L141.048 19.8198L143.07 17.9671L150.194 26.2073H146.535Z" fill="#31373D"/>
</g>
</svg>
